<?xml version="1.0" encoding="UTF-8" standalone="no"?>
<!DOCTYPE svg PUBLIC "-//W3C//DTD SVG 1.1//EN" "http://www.w3.org/Graphics/SVG/1.1/DTD/svg11.dtd">
<svg width="100%" height="100%" viewBox="0 0 4167 4167" version="1.1" xmlns="http://www.w3.org/2000/svg" xmlns:xlink="http://www.w3.org/1999/xlink" xml:space="preserve" xmlns:serif="http://www.serif.com/" style="fill-rule:evenodd;clip-rule:evenodd;stroke-linejoin:round;stroke-miterlimit:2;">
    <g transform="matrix(1,0,0,1,96.0693,293.073)">
        <path d="M3230.97,744.077C3226.49,745.903 3222.47,748.459 3219,751.568C3163.98,707.783 3078.15,682.503 2990.77,681.442C2893.61,680.263 2795.99,708.963 2738.11,766.844C2711.07,793.876 2710.07,817.054 2713.65,832.09C2717.67,848.963 2730.65,864.62 2752.59,873.733C2738.85,887.697 2725.62,902.038 2718.28,912.466C2701.25,936.649 2705.15,958.695 2709.87,968.138C2713.69,975.766 2720.82,984.363 2732.32,991.069C2746.39,999.279 2774.83,1006.06 2785.03,1009.46C2802.12,1015.16 2821.47,1016.12 2841.22,1015.51C2835.18,1029.24 2834.75,1040.82 2836.22,1049.42C2839.68,1069.8 2855.11,1088.85 2885.49,1097.65C2903.75,1102.94 2930.55,1105.02 2955.42,1107.95C2961.36,1108.66 2968.95,1110.15 2975.08,1111.48C2971.34,1119.63 2966.97,1130.04 2966.1,1135.69C2964.22,1147.98 2966.17,1159.44 2972.3,1170.19C2977.79,1179.82 2987.86,1191.11 3009.72,1198.4C3021.9,1202.46 3018.39,1201.97 3028.11,1204.4C3033.37,1205.72 3036.16,1208.66 3039.03,1211.03C3042.98,1214.29 3046.85,1217.46 3051.07,1220.36C3063.87,1229.17 3079.11,1236.29 3104.6,1236.29C3109.39,1236.29 3120.28,1236.54 3129.71,1236.78C3130.28,1253.42 3131.81,1269.24 3135.69,1282.34C3142.61,1305.68 3155.92,1322.84 3176.08,1332.6C3197.36,1342.91 3233.75,1345.42 3292.11,1318.33C3294.41,1324.36 3297.18,1332.04 3298.43,1337.02C3303.62,1357.76 3310.25,1374.17 3314.53,1379.35C3323.93,1390.7 3335.05,1394.57 3345.21,1395.27C3355.57,1395.99 3367.68,1393.89 3379.18,1382.39C3415.41,1346.16 3448.82,1279.05 3466.66,1204.54C3484.33,1130.75 3486.79,1050.22 3465.85,987.394C3460.09,970.114 3407.81,894.177 3378.2,851.87C3441.33,786.708 3562.7,653.336 3619.72,531.458C3673.18,417.2 3670.77,312.777 3562.4,258.594C3552.66,253.721 3532.1,246.354 3532.1,246.354C3510.95,238.896 3487.69,249.511 3479.47,270.375C3479.47,270.375 3459.96,320.068 3452.64,345.694C3420.82,457.054 3351.44,560.961 3293.56,657.418C3284.56,672.42 3243.83,726.945 3230.97,744.077ZM3541.21,343.01C3537.89,352.289 3534.8,361.469 3532.77,368.587C3498.97,486.865 3426.49,597.844 3365.02,700.293C3353.63,719.284 3314.78,776.601 3292.57,801.308C3280.69,814.52 3269.3,821.244 3263.3,823.342C3253.39,826.812 3244.72,826.54 3237.39,824.517L3236.2,825.77C3219.94,842.031 3193.53,842.031 3177.27,825.77C3136.95,785.448 3063.44,765.664 2989.76,764.77C2929.23,764.035 2867.64,776.079 2823.28,804.769C2829.96,806.14 2835.79,807.61 2840.09,809.225C2863.57,818.036 2871.28,835.318 2872.65,848.804C2873.7,859.211 2872.28,873.075 2858.31,887.049C2853.15,892.21 2831.66,911.581 2812.69,930.786C2827.94,935.357 2846.19,931.612 2863.44,931.42C2885.33,931.177 2906.18,933.926 2924.08,942.876C2947.01,954.343 2953.97,972.795 2950.95,994.244C2949.77,1002.65 2944.69,1012.82 2939.01,1021.68C2948.12,1023.01 2957.59,1024.3 2965.18,1025.19C2998.76,1029.16 3028.28,1038.94 3042.15,1052.81C3068.25,1078.91 3067.82,1103.91 3059.46,1126.99C3069.31,1130.65 3077.07,1135.33 3083.93,1140.35C3087.17,1142.72 3090.16,1145.17 3093.09,1147.6C3095.98,1149.99 3098.42,1152.95 3104.6,1152.95C3120.15,1152.95 3154.59,1151.82 3173.92,1158.67C3200.03,1167.93 3212.66,1186.61 3212.66,1209.94C3212.66,1223.36 3212.4,1236.97 3213.8,1249.01C3214.07,1251.36 3214.67,1254.44 3215.16,1256.78C3217.61,1256.55 3220.74,1256.16 3223.36,1255.52C3234.55,1252.79 3248.11,1247.36 3264.7,1239.06C3285.38,1228.72 3302.89,1228.54 3317.42,1232.53C3332.62,1236.71 3345.63,1246.13 3355.79,1259.99C3356.78,1261.33 3357.75,1262.81 3358.71,1264.39C3369.64,1240.73 3378.83,1213.5 3385.62,1185.13C3399.57,1126.89 3403.32,1063.34 3386.79,1013.75C3380.43,994.664 3306.9,895.241 3292.72,875.162C3271.48,845.072 3294.31,818.323 3294.72,817.91C3340.26,772.374 3482.78,627.506 3544.24,496.144C3572.74,435.241 3586.26,377.125 3541.21,343.01ZM3273.58,750.749C3279.59,755.795 3284.23,762.573 3286.64,770.557C3283.98,761.334 3279.31,755.041 3273.58,750.749Z"/>
    </g>
    <g transform="matrix(1,0,0,1,96.0693,293.073)">
        <path d="M2733.61,845.994C2724.75,849.538 2684.46,866.319 2642.32,894.409C2560.03,949.272 2493.18,1040.86 2433.93,1144.85C2351.16,1290.11 2282.83,1460 2198.04,1573.04C2175.69,1602.85 2160.73,1636.77 2143.99,1669.56C2130.97,1695.06 2116.92,1719.99 2093,1739.13C1983.07,1827.07 1856.97,1905.64 1765.31,2015.64C1742.02,2043.58 1727,2079.97 1713.93,2117.8C1703.43,2148.18 1694.24,2179.56 1679.43,2205.48C1608.76,2329.16 1508.2,2513.5 1386.11,2594.9C1334.94,2629.01 1271.46,2655.27 1220.81,2693.26C1198.18,2710.23 1181.51,2731.06 1164.99,2752.14C1153.09,2767.32 1141.41,2782.79 1124.56,2794.82C1088.14,2820.84 1037.66,2836.05 992.221,2828.48C957.217,2822.65 927.051,2807.98 898.076,2792.73C863.238,2774.39 829.89,2755.11 794.284,2743.24C740.746,2725.39 671.487,2724.99 603.93,2718.24C550.33,2712.89 497.342,2704.15 460.071,2668.28C456.064,2661.38 431.445,2619.68 414.806,2606.78C400.394,2595.61 384.984,2591.83 370.509,2593.79C359.691,2595.26 348.493,2599.84 338.011,2610.32C329.273,2619.06 321.853,2633.77 321.102,2653.9C319.884,2686.56 338.892,2747.08 343.266,2760.2C374.083,2852.65 442.347,2905.07 519.416,2947.93C584.068,2983.89 655.381,3012.15 705.685,3062.45C717.171,3073.94 724.633,3088.11 733.157,3101.79C746.005,3122.4 760.334,3142.26 781.64,3158.24C849.623,3209.23 1033.87,3291.99 1178.45,3323.38C1246.83,3338.22 1307.18,3340.72 1345.8,3327.85C1465.26,3288.03 1550.53,3191.87 1644.62,3116.59C1731.78,3046.86 1828.94,3009.23 1908.49,2929.68C1944.05,2894.12 1981.95,2810.55 2010.36,2770.78C2074.66,2680.76 2102.46,2636.51 2183.16,2555.81C2209.32,2529.65 2255.2,2504.2 2281.91,2484.17C2377.12,2412.76 2489.71,2341.44 2565.2,2247.07C2683.94,2098.65 2805.64,1861.58 2955.98,1748.83C2984.04,1727.78 3026.1,1709.3 3061.36,1685.42C3091.49,1665.03 3117,1640.88 3131.66,1611.57C3166.75,1541.38 3246.68,1435.71 3327.5,1395.3C3348.07,1385.01 3356.42,1359.97 3346.13,1339.4C3335.85,1318.83 3310.8,1310.48 3290.23,1320.76C3194.83,1368.46 3098.55,1491.45 3057.12,1574.3C3045.87,1596.81 3022.27,1612.34 2998.05,1626.99C2965.52,1646.66 2930.7,1663.62 2905.98,1682.16C2750.7,1798.62 2622.77,2041.72 2500.13,2195.01C2428.91,2284.03 2321.73,2350.14 2231.91,2417.51C2202.63,2439.47 2152.92,2468.2 2124.23,2496.89C2039.51,2581.61 2010.06,2627.84 1942.55,2722.35C1916.19,2759.25 1882.56,2837.76 1849.56,2870.76C1772.26,2948.05 1677.25,2983.76 1592.56,3051.52C1505.93,3120.82 1429.43,3212.13 1319.44,3248.79C1280,3261.94 1211.37,3248.35 1137.56,3226.99C1017.39,3192.21 885.11,3131.68 831.64,3091.58C815.784,3079.68 807.358,3063.35 797.901,3048.03C788.129,3032.2 777.924,3016.84 764.611,3003.53C709.019,2947.93 631.368,2914.84 559.92,2875.11C505.401,2844.78 454.361,2810.39 428.304,2749.52C475.636,2782.18 534.685,2795.07 595.644,2801.16C656.723,2807.27 719.527,2806.16 767.931,2822.3C799.345,2832.77 828.521,2850.29 859.256,2866.47C895.854,2885.74 934.309,2903.31 978.521,2910.68C1045.17,2921.79 1119.57,2900.8 1173,2862.63C1196.64,2845.75 1213.88,2824.85 1230.58,2803.54C1242.66,2788.12 1254.26,2772.34 1270.81,2759.93C1320.25,2722.85 1382.39,2697.53 1432.33,2664.24C1563.97,2576.48 1675.59,2380.17 1751.79,2246.82C1769.03,2216.64 1780.47,2180.39 1792.69,2145.02C1802.34,2117.09 1812.14,2089.61 1829.33,2068.99C1917.42,1963.28 2039.41,1888.72 2145.06,1804.2C2178.7,1777.29 2199.9,1743.31 2218.21,1707.45C2232.8,1678.88 2245.23,1649.01 2264.71,1623.04C2337.3,1526.26 2398.73,1389.25 2466.28,1259.85C2529.24,1139.26 2596.84,1024.89 2688.55,963.747C2735.72,932.302 2768.61,921.962 2772.9,919.729C2801.25,904.954 2796.29,879.709 2794.73,872.982C2792.36,862.753 2786.26,847.274 2763.87,841.821C2753.2,839.222 2742.48,840.993 2733.61,845.994ZM2722.74,909.824C2726.62,914.442 2732.52,919.439 2742.03,922.21C2734.32,919.902 2727.74,915.52 2722.74,909.824ZM2712.6,877.782C2711.51,885.835 2712.94,893.29 2716.4,900.208C2713.14,893.391 2711.72,885.658 2712.6,877.782Z"/>
    </g>
</svg>
