<?xml version="1.0" encoding="UTF-8" standalone="no"?>
<!DOCTYPE svg PUBLIC "-//W3C//DTD SVG 1.1//EN" "http://www.w3.org/Graphics/SVG/1.1/DTD/svg11.dtd">
<svg width="100%" height="100%" viewBox="0 0 4171 4171" version="1.1" xmlns="http://www.w3.org/2000/svg" xmlns:xlink="http://www.w3.org/1999/xlink" xml:space="preserve" xmlns:serif="http://www.serif.com/" style="fill-rule:evenodd;clip-rule:evenodd;stroke-linecap:round;stroke-linejoin:round;stroke-miterlimit:1.5;">
    <g transform="matrix(1,0,0,1,-575.443,-48.9034)">
        <g transform="matrix(1.02472,0,0,1.02472,-569.688,-298.403)">
            <circle cx="3152.68" cy="2374.11" r="2034.69" style="fill:rgb(235,235,235);"/>
            <clipPath id="_clip1">
                <circle cx="3152.68" cy="2374.11" r="2034.69"/>
            </clipPath>
            <g clip-path="url(#_clip1)">
                <g transform="matrix(0.975872,0,0,0.975872,555.943,291.203)">
                    <g>
                        <g>
                            <rect x="-783.699" y="-456.479" width="7470.13" height="5517.79" style="fill:rgb(11,8,38);"/>
                            <g transform="matrix(0.881853,0,0,0.779154,529.107,888.468)">
                                <path d="M2430.53,1129.52L3897.8,3668.08L963.269,3668.08L2430.53,1129.52Z" style="fill:rgb(49,42,56);"/>
                            </g>
                            <g transform="matrix(1,0,0,1,-1435.61,78.3872)">
                                <path d="M2430.53,1129.52L3897.8,3668.08L963.269,3668.08L2430.53,1129.52Z" style="fill:rgb(57,49,65);"/>
                            </g>
                            <g transform="matrix(0.969775,0,0,0.847225,2008.13,531.265)">
                                <path d="M2430.53,1129.52L3897.8,3668.08L963.269,3668.08L2430.53,1129.52Z" style="fill:rgb(67,54,80);"/>
                            </g>
                            <path d="M-128.357,3689.91C-122.744,3645.64 -66.205,3472.87 0,3456.25C69.704,3438.75 190.895,3493.75 233.874,3493.75C413.549,3493.75 480.769,3501.55 645.559,3446.62C714.701,3423.58 842.477,3456.05 918.919,3456.05C1039.8,3456.05 1223.39,3400.2 1333.67,3427.77C1493.96,3467.84 1684,3538.14 1861.54,3493.75C1986.95,3462.4 2442.62,3448.62 2559.08,3465.47C2745.05,3492.38 2816.89,3471.92 2904.22,3493.75C2946.21,3504.25 3316.79,3491.14 3398.01,3474.9C3614.38,3431.63 3831.26,3508.46 4048.42,3484.33C4415.71,3443.52 4643.42,3474.51 5009.89,3352.36C5098.54,3322.81 5571.53,3476.89 5691.67,3456.05C5801.72,3436.96 5870.26,3398.88 5971.37,3427.77C6260.55,3510.39 6318.57,3839.36 6291.86,4106.46C6269.78,4327.29 6164.78,4567.79 5999.65,4719.16C5549.64,5131.66 4145.31,5798.16 3539.41,5925.72C3362.07,5963.05 3180.8,5931.33 3002.11,5944.57C2412.38,5988.25 1518.62,6160.77 956.624,6067.11C730.398,6029.4 533.126,5904.46 315.642,5840.88C138.755,5789.17 -46.643,5781.98 -221.652,5718.34C-489.899,5620.79 -1010.01,5157.35 -1183.12,4926.54C-1255.17,4830.48 -1389.76,4610.29 -1371.65,4483.51C-1313.92,4079.42 -538.079,3691.7 -259.357,3691.7C-220.639,3691.7 -146.242,3764.54 -146.242,3710.56" style="fill:rgb(42,28,57);"/>
                            <g transform="matrix(0.625919,0,0,0.625919,74.8721,1401.48)">
                                <g transform="matrix(0.976241,0,0,1.00661,-301.949,351.09)">
                                    <path d="M2648.35,3269.59C2648.35,3242.14 2637.11,3215.82 2617.1,3196.41C2597.09,3177.01 2569.95,3166.11 2541.66,3166.11L621.017,3166.11C592.719,3166.11 565.579,3177.01 545.569,3196.41C525.56,3215.82 514.318,3242.14 514.318,3269.59C514.318,3297.04 525.56,3323.36 545.569,3342.76C565.579,3362.17 592.719,3373.07 621.017,3373.07L2541.66,3373.07C2569.95,3373.07 2597.09,3362.17 2617.1,3342.76C2637.11,3323.36 2648.35,3297.04 2648.35,3269.59Z" style="fill:rgb(11,8,38);"/>
                                </g>
                                <g transform="matrix(1,0,0,1,4.5599,101.991)">
                                    <g>
                                        <path d="M594.576,2426.22L813.267,3285.69L375.885,3285.69L594.576,2426.22Z" style="fill:rgb(11,8,38);"/>
                                    </g>
                                </g>
                                <g transform="matrix(0.790033,0,0,0.790033,1413.7,757.029)">
                                    <rect x="555.43" y="3208.94" width="96.865" height="329.192" style="fill:rgb(11,8,38);"/>
                                    <g transform="matrix(1,0,0,1,9.28601,87.8517)">
                                        <path d="M594.576,2426.22L813.267,3285.69L375.885,3285.69L594.576,2426.22Z" style="fill:rgb(11,8,38);"/>
                                    </g>
                                </g>
                                <g transform="matrix(1.2737,0,0,1.2737,472.675,-954.258)">
                                    <rect x="555.43" y="3208.94" width="96.865" height="329.192" style="fill:rgb(11,8,38);"/>
                                    <g transform="matrix(1,0,0,1,9.28601,87.8517)">
                                        <path d="M594.576,2426.22L813.267,3285.69L375.885,3285.69L594.576,2426.22Z" style="fill:rgb(11,8,38);"/>
                                    </g>
                                </g>
                            </g>
                            <g transform="matrix(0.770201,0,0,0.770201,3446.67,1077.15)">
                                <g transform="matrix(0.976241,0,0,1.00661,-301.949,351.09)">
                                    <path d="M2648.35,3269.59C2648.35,3212.44 2600.58,3166.11 2541.65,3166.11L621.018,3166.11C562.089,3166.11 514.318,3212.44 514.318,3269.59C514.318,3326.74 562.089,3373.07 621.018,3373.07L2541.65,3373.07C2600.58,3373.07 2648.35,3326.74 2648.35,3269.59Z" style="fill:rgb(11,8,38);"/>
                                </g>
                                <g transform="matrix(1,0,0,1,-4.72611,14.1389)">
                                    <rect x="555.43" y="3208.94" width="96.865" height="329.192" style="fill:rgb(11,8,38);"/>
                                    <g transform="matrix(1,0,0,1,9.28601,87.8517)">
                                        <path d="M594.576,2426.22L813.267,3285.69L375.885,3285.69L594.576,2426.22Z" style="fill:rgb(11,8,38);"/>
                                    </g>
                                </g>
                                <g transform="matrix(1.2737,0,0,1.2737,472.675,-954.258)">
                                    <rect x="555.43" y="3208.94" width="96.865" height="329.192" style="fill:rgb(11,8,38);"/>
                                    <g transform="matrix(1,0,0,1,9.28601,87.8517)">
                                        <path d="M594.576,2426.22L813.267,3285.69L375.885,3285.69L594.576,2426.22Z" style="fill:rgb(11,8,38);"/>
                                    </g>
                                </g>
                            </g>
                            <g transform="matrix(0.584335,0,0,0.584335,1736.56,1837.55)">
                                <g transform="matrix(0.976241,0,0,1.00661,-301.949,351.09)">
                                    <path d="M2648.35,3269.59C2648.35,3242.14 2637.11,3215.82 2617.1,3196.41C2597.09,3177.01 2569.95,3166.11 2541.65,3166.11L621.02,3166.11C592.721,3166.11 565.581,3177.01 545.57,3196.41C525.56,3215.82 514.318,3242.14 514.318,3269.59C514.318,3297.03 525.56,3323.36 545.57,3342.76C565.581,3362.17 592.721,3373.07 621.02,3373.07L2541.65,3373.07C2569.95,3373.07 2597.09,3362.17 2617.1,3342.76C2637.11,3323.36 2648.35,3297.03 2648.35,3269.59Z" style="fill:rgb(11,8,38);"/>
                                </g>
                                <g transform="matrix(1,0,0,1,-4.72611,14.1516)">
                                    <rect x="555.43" y="3208.94" width="96.865" height="329.192" style="fill:rgb(11,8,38);"/>
                                    <g transform="matrix(0.954672,0,0,1.10393,-2258.87,1817.98)">
                                        <path d="M2998.72,630.551C2998.72,630.551 2769.58,1036.9 2769.58,1211.05C2769.58,1320.41 2872.26,1409.21 2998.72,1409.21C3125.18,1409.21 3227.86,1320.41 3227.86,1211.05C3227.86,1036.9 2998.72,630.551 2998.72,630.551Z" style="fill:rgb(11,8,38);"/>
                                    </g>
                                </g>
                                <g transform="matrix(1.25144,0,0,1.25144,481.249,-875.489)">
                                    <rect x="555.43" y="3208.94" width="96.865" height="329.192" style="fill:rgb(11,8,38);"/>
                                    <g transform="matrix(0.971371,0,0,1.12329,-2309.01,1787.56)">
                                        <path d="M2998.72,630.551C2998.72,630.551 2769.58,1036.91 2769.58,1211.06C2769.58,1320.42 2872.26,1409.21 2998.72,1409.21C3125.18,1409.21 3227.86,1320.42 3227.86,1211.06C3227.86,1036.91 2998.72,630.551 2998.72,630.551Z" style="fill:rgb(11,8,38);"/>
                                    </g>
                                </g>
                                <g transform="matrix(0.790033,0,0,0.790033,1413.7,757.042)">
                                    <rect x="555.43" y="3208.94" width="96.865" height="329.192" style="fill:rgb(11,8,38);"/>
                                    <g transform="matrix(0.954056,0,0,1.10404,-2257.17,1817.91)">
                                        <path d="M2998.72,630.551C2998.72,630.551 2769.58,1037 2769.58,1211.2C2769.58,1320.48 2872.26,1409.21 2998.72,1409.21C3125.18,1409.21 3227.86,1320.48 3227.86,1211.2C3227.86,1037 2998.72,630.551 2998.72,630.551Z" style="fill:rgb(11,8,38);"/>
                                    </g>
                                </g>
                            </g>
                        </g>
                        <g>
                            <g transform="matrix(0.178628,0,0,0.166996,1409.87,1962.79)">
                                <path d="M2078.12,420.408C2078.12,420.408 2089.75,472.214 2102.1,527.217C2120.15,607.626 2174.33,673.216 2246.7,702.293L2246.7,702.295C2174.71,728.38 2120.38,792.314 2102.95,871.447C2090.29,928.924 2078.12,984.177 2078.12,984.177C2078.12,984.177 2066.49,929.923 2054.29,873.011C2037.14,793.02 1982.3,728.343 1909.55,702.294C1909.55,702.293 1909.54,702.293 1909.54,702.293L1909.55,702.293C1982.69,673.257 2037.36,606.93 2055.12,525.665C2067.01,471.243 2078.12,420.408 2078.12,420.408Z" style="fill:rgb(255,224,0);"/>
                            </g>
                            <g transform="matrix(0.178628,0,0,0.166996,4373.69,1729.87)">
                                <path d="M2078.12,420.408C2078.12,420.408 2089.75,472.214 2102.1,527.217C2120.15,607.626 2174.33,673.216 2246.7,702.293L2246.7,702.295C2174.71,728.38 2120.38,792.314 2102.95,871.447C2090.29,928.924 2078.12,984.177 2078.12,984.177C2078.12,984.177 2066.49,929.923 2054.29,873.011C2037.14,793.02 1982.3,728.343 1909.55,702.294C1909.55,702.293 1909.54,702.293 1909.54,702.293L1909.55,702.293C1982.69,673.257 2037.36,606.93 2055.12,525.665C2067.01,471.243 2078.12,420.408 2078.12,420.408Z" style="fill:rgb(255,224,0);"/>
                            </g>
                            <g transform="matrix(0.337687,0,0,0.315698,2815.23,1947.35)">
                                <path d="M2078.12,420.408C2078.12,420.408 2100.07,518.171 2115.68,587.689C2125.24,630.281 2153.93,665.024 2192.27,680.426C2220.01,691.572 2246.7,702.293 2246.7,702.293C2246.7,702.293 2222.22,711.162 2195.79,720.743C2155.47,735.353 2125.04,771.162 2115.28,815.483C2099.7,886.219 2078.12,984.177 2078.12,984.177C2078.12,984.177 2057.3,887.053 2042.15,816.389C2032.54,771.568 2001.81,735.329 1961.05,720.733C1934.3,711.156 1909.54,702.293 1909.54,702.293C1909.54,702.293 1936.5,691.594 1964.54,680.461C2003.35,665.059 2032.34,629.875 2041.77,586.768C2056.94,517.311 2078.12,420.408 2078.12,420.408Z" style="fill:rgb(255,224,0);"/>
                            </g>
                            <g transform="matrix(0.337687,0,0,0.315698,1166.36,1947.35)">
                                <path d="M2078.12,420.408C2078.12,420.408 2100.07,518.171 2115.68,587.689C2125.24,630.281 2153.93,665.024 2192.27,680.426C2220.01,691.572 2246.7,702.293 2246.7,702.293C2246.7,702.293 2222.22,711.162 2195.79,720.743C2155.47,735.353 2125.04,771.162 2115.28,815.483C2099.7,886.219 2078.12,984.177 2078.12,984.177C2078.12,984.177 2057.3,887.053 2042.15,816.389C2032.54,771.568 2001.81,735.329 1961.05,720.733C1934.3,711.156 1909.54,702.293 1909.54,702.293C1909.54,702.293 1936.5,691.594 1964.54,680.461C2003.35,665.059 2032.34,629.875 2041.77,586.768C2056.94,517.311 2078.12,420.408 2078.12,420.408Z" style="fill:rgb(255,224,0);"/>
                            </g>
                            <g transform="matrix(0.178628,0,0,0.166996,783.787,440.11)">
                                <path d="M2078.12,420.408C2078.12,420.408 2089.75,472.214 2102.1,527.217C2120.15,607.626 2174.33,673.216 2246.7,702.293L2246.7,702.295C2174.71,728.38 2120.38,792.314 2102.95,871.447C2090.29,928.924 2078.12,984.177 2078.12,984.177C2078.12,984.177 2066.49,929.923 2054.29,873.011C2037.14,793.02 1982.3,728.343 1909.55,702.294C1909.55,702.293 1909.54,702.293 1909.54,702.293L1909.55,702.293C1982.69,673.257 2037.36,606.93 2055.12,525.665C2067.01,471.243 2078.12,420.408 2078.12,420.408Z" style="fill:rgb(255,224,0);"/>
                            </g>
                            <g transform="matrix(1,0,0,1,61.7939,-290.331)">
                                <path d="M4407.03,537.384C4237.17,537.384 4099.27,676.442 4099.27,847.721C4099.27,1019 4237.17,1158.06 4407.03,1158.06C4322.1,1106.34 4253.15,985.084 4253.15,847.721C4253.15,710.359 4322.1,589.107 4407.03,537.384Z" style="fill:rgb(255,249,207);"/>
                            </g>
                            <g transform="matrix(0.316834,0,0,0.296202,2980.06,1653.52)">
                                <path d="M2078.12,420.408C2078.12,420.408 2089.75,472.214 2102.1,527.217C2120.15,607.626 2174.33,673.216 2246.7,702.293L2246.7,702.295C2174.71,728.38 2120.38,792.314 2102.95,871.447C2090.29,928.924 2078.12,984.177 2078.12,984.177C2078.12,984.177 2066.49,929.923 2054.29,873.011C2037.14,793.02 1982.3,728.343 1909.55,702.294C1909.55,702.293 1909.54,702.293 1909.54,702.293L1909.55,702.293C1982.69,673.257 2037.36,606.93 2055.12,525.665C2067.01,471.243 2078.12,420.408 2078.12,420.408Z" style="fill:rgb(255,224,0);"/>
                            </g>
                            <g transform="matrix(0.548588,0,0,0.512866,3154.86,-136.838)">
                                <g transform="matrix(1.40802,0,0,1.40802,-3968.46,1564.14)">
                                    <g transform="matrix(0.306354,0,0,0.306354,2259.71,10.0975)">
                                        <path d="M2078.12,420.408C2078.12,420.408 2094.6,493.786 2109.15,558.604C2122.79,619.385 2163.74,668.964 2218.45,690.943C2234.71,697.476 2246.7,702.293 2246.7,702.293C2246.7,702.293 2237.12,705.766 2223.47,710.713C2165.93,731.562 2122.5,782.663 2108.57,845.91C2094.17,911.328 2078.12,984.177 2078.12,984.177C2078.12,984.177 2062.71,912.284 2048.76,847.203C2035.04,783.242 1991.2,731.527 1933.02,710.698C1919.23,705.759 1909.54,702.293 1909.54,702.293C1909.54,702.293 1921.62,697.501 1938.01,690.994C1993.38,669.014 2034.76,618.805 2048.21,557.289C2062.3,492.798 2078.12,420.408 2078.12,420.408Z" style="fill:rgb(255,224,0);"/>
                                    </g>
                                    <g transform="matrix(0.43117,0,0,0.43117,1150.78,178.928)">
                                        <path d="M2078.12,420.408C2078.12,420.408 2089.75,472.214 2102.1,527.217C2120.15,607.626 2174.33,673.216 2246.7,702.293L2246.7,702.295C2174.71,728.38 2120.38,792.314 2102.95,871.447C2090.29,928.924 2078.12,984.177 2078.12,984.177C2078.12,984.177 2066.49,929.923 2054.29,873.011C2037.14,793.02 1982.3,728.343 1909.55,702.294C1909.55,702.293 1909.54,702.293 1909.54,702.293L1909.55,702.293C1982.69,673.257 2037.36,606.93 2055.12,525.665C2067.01,471.243 2078.12,420.408 2078.12,420.408Z" style="fill:rgb(255,224,0);"/>
                                    </g>
                                    <g transform="matrix(1.47289,0,0,1.47289,-1621.86,583.499)">
                                        <path d="M2078.12,420.408C2078.12,420.408 2094.6,493.786 2109.15,558.604C2122.79,619.385 2163.74,668.964 2218.45,690.943C2234.71,697.476 2246.7,702.293 2246.7,702.293C2246.7,702.293 2237.12,705.766 2223.47,710.713C2165.93,731.562 2122.5,782.663 2108.57,845.91C2094.17,911.328 2078.12,984.177 2078.12,984.177C2078.12,984.177 2062.71,912.284 2048.76,847.203C2035.04,783.242 1991.2,731.527 1933.02,710.698C1919.23,705.759 1909.54,702.293 1909.54,702.293C1909.54,702.293 1921.62,697.501 1938.01,690.994C1993.38,669.014 2034.76,618.805 2048.21,557.289C2062.3,492.798 2078.12,420.408 2078.12,420.408Z" style="fill:rgb(255,224,0);"/>
                                    </g>
                                    <g transform="matrix(0.43117,0,0,0.43117,720.688,535.701)">
                                        <path d="M2078.12,420.408C2078.12,420.408 2089.75,472.214 2102.1,527.217C2120.15,607.626 2174.33,673.216 2246.7,702.293L2246.7,702.295C2174.71,728.38 2120.38,792.314 2102.95,871.447C2090.29,928.924 2078.12,984.177 2078.12,984.177C2078.12,984.177 2066.49,929.923 2054.29,873.011C2037.14,793.02 1982.3,728.343 1909.55,702.294C1909.55,702.293 1909.54,702.293 1909.54,702.293L1909.55,702.293C1982.69,673.257 2037.36,606.93 2055.12,525.665C2067.01,471.243 2078.12,420.408 2078.12,420.408Z" style="fill:rgb(255,224,0);"/>
                                    </g>
                                    <g transform="matrix(0.787073,0,0,0.787073,278.487,643.241)">
                                        <path d="M2078.12,420.408C2078.12,420.408 2103.1,531.648 2118.71,601.185C2126.38,635.337 2149.38,663.196 2180.12,675.546C2211.65,688.21 2246.7,702.293 2246.7,702.293C2246.7,702.293 2213.7,714.252 2182.94,725.397C2150.61,737.112 2126.21,765.826 2118.39,801.364C2102.76,872.334 2078.12,984.177 2078.12,984.177C2078.12,984.177 2054.31,873.094 2039.08,802.09C2031.38,766.151 2006.74,737.093 1974.05,725.389C1942.93,714.246 1909.54,702.293 1909.54,702.293C1909.54,702.293 1944.97,688.231 1976.86,675.574C2007.97,663.224 2031.22,635.012 2038.78,600.446C2053.98,530.862 2078.12,420.408 2078.12,420.408Z" style="fill:rgb(255,224,0);"/>
                                    </g>
                                    <g transform="matrix(0.564714,0.00614932,-0.00536342,0.563548,-153.615,724.433)">
                                        <path d="M2078.12,420.408C2078.12,420.408 2103.1,531.648 2118.71,601.185C2126.38,635.337 2149.38,663.196 2180.12,675.546C2211.65,688.21 2246.7,702.293 2246.7,702.293C2246.7,702.293 2213.7,714.252 2182.94,725.397C2150.61,737.112 2126.21,765.826 2118.39,801.364C2102.76,872.334 2078.12,984.177 2078.12,984.177C2078.12,984.177 2054.31,873.094 2039.08,802.09C2031.38,766.151 2006.74,737.093 1974.05,725.389C1942.93,714.246 1909.54,702.293 1909.54,702.293C1909.54,702.293 1944.97,688.231 1976.86,675.574C2007.97,663.224 2031.22,635.012 2038.78,600.446C2053.98,530.862 2078.12,420.408 2078.12,420.408Z" style="fill:rgb(255,224,0);"/>
                                    </g>
                                    <g transform="matrix(1.29463,0,0,1.3848,-1265.89,-921.389)">
                                        <path d="M1809.97,1564.35L1992.7,1699.99" style="fill:none;stroke:rgb(255,224,0);stroke-width:17.12px;"/>
                                    </g>
                                    <g transform="matrix(1.29463,0,0,1.3848,-1265.89,-921.389)">
                                        <path d="M2170.45,1699.99L2367.24,1564.35" style="fill:none;stroke:rgb(255,224,0);stroke-width:17.12px;"/>
                                    </g>
                                    <g transform="matrix(1.29463,0,0,1.3848,-1265.89,-921.389)">
                                        <path d="M2268.84,1358.63L2367.24,1450.37" style="fill:none;stroke:rgb(255,224,0);stroke-width:17.12px;"/>
                                    </g>
                                    <g transform="matrix(1.29463,0,0,1.3848,-1265.89,-921.389)">
                                        <path d="M1809.97,1404.5L1901.33,1270.87" style="fill:none;stroke:rgb(255,224,0);stroke-width:17.12px;"/>
                                    </g>
                                    <g transform="matrix(1.29463,0,0,1.3848,-1265.89,-921.389)">
                                        <path d="M2282.74,1183.1L2513.37,1070.99" style="fill:none;stroke:rgb(255,224,0);stroke-width:17.12px;"/>
                                    </g>
                                    <g transform="matrix(1.29463,0,0,1.3848,-1265.89,-921.389)">
                                        <path d="M2636.87,970.652L2781.57,923.867" style="fill:none;stroke:rgb(255,224,0);stroke-width:17.12px;"/>
                                    </g>
                                    <g transform="matrix(1.29463,0,0,1.3848,-1265.89,-921.389)">
                                        <path d="M2846,750.163L2932.34,614.22" style="fill:none;stroke:rgb(255,224,0);stroke-width:17.12px;"/>
                                    </g>
                                    <g transform="matrix(1.29463,0,0,1.3848,-1265.89,-921.389)">
                                        <path d="M2889.17,817.84L3168.99,682.191" style="fill:none;stroke:rgb(255,224,0);stroke-width:17.12px;"/>
                                    </g>
                                    <g transform="matrix(1.29463,0,0,1.3848,-1265.89,-921.389)">
                                        <path d="M2932.34,875.708L3116.92,817.84" style="fill:none;stroke:rgb(255,224,0);stroke-width:17.12px;"/>
                                    </g>
                                </g>
                                <g transform="matrix(0.754867,0,0,0.754866,2262.7,5154.57)">
                                    <g transform="matrix(1,0,0,1,-5477.72,-5750.83)">
                                        <path d="M2078.12,420.408C2078.12,420.408 2089.75,472.214 2102.1,527.217C2120.15,607.626 2174.33,673.216 2246.7,702.293L2246.7,702.295C2174.71,728.38 2120.38,792.314 2102.95,871.447C2090.29,928.924 2078.12,984.177 2078.12,984.177C2078.12,984.177 2066.49,929.923 2054.29,873.011C2037.14,793.02 1982.3,728.343 1909.55,702.294C1909.55,702.293 1909.54,702.293 1909.54,702.293L1909.55,702.293C1982.69,673.257 2037.36,606.93 2055.12,525.665C2067.01,471.243 2078.12,420.408 2078.12,420.408Z" style="fill:rgb(255,224,0);"/>
                                    </g>
                                    <g transform="matrix(1,0,0,1,-5821.44,-4917.71)">
                                        <path d="M2078.12,420.408C2078.12,420.408 2089.75,472.214 2102.1,527.217C2120.15,607.626 2174.33,673.216 2246.7,702.293L2246.7,702.295C2174.71,728.38 2120.38,792.314 2102.95,871.447C2090.29,928.924 2078.12,984.177 2078.12,984.177C2078.12,984.177 2066.49,929.923 2054.29,873.011C2037.14,793.02 1982.3,728.343 1909.55,702.294C1909.55,702.293 1909.54,702.293 1909.54,702.293L1909.55,702.293C1982.69,673.257 2037.36,606.93 2055.12,525.665C2067.01,471.243 2078.12,420.408 2078.12,420.408Z" style="fill:rgb(255,224,0);"/>
                                    </g>
                                </g>
                                <g transform="matrix(1.36819,0,0,1.22977,-5016.25,1725.43)">
                                    <path d="M2078.12,420.408C2078.12,420.408 2089.75,472.214 2102.1,527.217C2120.15,607.626 2174.33,673.216 2246.7,702.293L2246.7,702.295C2174.71,728.38 2120.38,792.314 2102.95,871.447C2090.29,928.924 2078.12,984.177 2078.12,984.177C2078.12,984.177 2066.49,929.923 2054.29,873.011C2037.14,793.02 1982.3,728.343 1909.55,702.294C1909.55,702.293 1909.54,702.293 1909.54,702.293L1909.55,702.293C1982.69,673.257 2037.36,606.93 2055.12,525.665C2067.01,471.243 2078.12,420.408 2078.12,420.408Z" style="fill:rgb(255,224,0);"/>
                                </g>
                                <g transform="matrix(0.847888,0,0,0.847886,-1582.13,849.072)">
                                    <path d="M2078.12,420.408C2078.12,420.408 2103.1,531.648 2118.71,601.185C2126.38,635.337 2149.38,663.196 2180.12,675.546C2211.65,688.21 2246.7,702.293 2246.7,702.293C2246.7,702.293 2213.7,714.252 2182.94,725.397C2150.61,737.112 2126.21,765.826 2118.39,801.364C2102.76,872.334 2078.12,984.177 2078.12,984.177C2078.12,984.177 2054.31,873.094 2039.08,802.09C2031.38,766.151 2006.74,737.093 1974.05,725.389C1942.93,714.246 1909.54,702.293 1909.54,702.293C1909.54,702.293 1944.97,688.231 1976.86,675.574C2007.97,663.224 2031.22,635.012 2038.78,600.446C2053.98,530.862 2078.12,420.408 2078.12,420.408Z" style="fill:rgb(255,224,0);"/>
                                </g>
                            </g>
                        </g>
                        <g transform="matrix(0.542702,0,0,0.507363,579.557,259.866)">
                            <path d="M2078.12,420.408C2078.12,420.408 2094.6,493.786 2109.15,558.604C2122.79,619.385 2163.74,668.964 2218.45,690.943C2234.71,697.476 2246.7,702.293 2246.7,702.293C2246.7,702.293 2237.12,705.766 2223.47,710.713C2165.93,731.562 2122.5,782.663 2108.57,845.91C2094.17,911.328 2078.12,984.177 2078.12,984.177C2078.12,984.177 2062.71,912.284 2048.76,847.203C2035.04,783.242 1991.2,731.527 1933.02,710.698C1919.23,705.759 1909.54,702.293 1909.54,702.293C1909.54,702.293 1921.62,697.501 1938.01,690.994C1993.38,669.014 2034.76,618.805 2048.21,557.289C2062.3,492.798 2078.12,420.408 2078.12,420.408Z" style="fill:rgb(255,224,0);"/>
                        </g>
                        <g transform="matrix(0.542702,0,0,0.507363,2047.33,1197.83)">
                            <path d="M2078.12,420.408C2078.12,420.408 2094.6,493.786 2109.15,558.604C2122.79,619.385 2163.74,668.964 2218.45,690.943C2234.71,697.476 2246.7,702.293 2246.7,702.293C2246.7,702.293 2237.12,705.766 2223.47,710.713C2165.93,731.562 2122.5,782.663 2108.57,845.91C2094.17,911.328 2078.12,984.177 2078.12,984.177C2078.12,984.177 2062.71,912.284 2048.76,847.203C2035.04,783.242 1991.2,731.527 1933.02,710.698C1919.23,705.759 1909.54,702.293 1909.54,702.293C1909.54,702.293 1921.62,697.501 1938.01,690.994C1993.38,669.014 2034.76,618.805 2048.21,557.289C2062.3,492.798 2078.12,420.408 2078.12,420.408Z" style="fill:rgb(255,224,0);"/>
                        </g>
                    </g>
                </g>
            </g>
            <circle cx="3152.68" cy="2374.11" r="2034.69" style="fill:none;stroke:rgb(255,224,0);stroke-width:0.98px;"/>
        </g>
        <g transform="matrix(1,0,0,1,-338.691,578.001)">
            <text x="1697.63px" y="2382.95px" style="font-family:'SnellRoundhand-Black', 'Snell Roundhand';font-weight:900;font-style:italic;font-size:700px;fill:rgb(255,224,0);">Scorpio</text>
        </g>
        <g transform="matrix(0.810762,0,0,0.757967,1783.77,808.173)">
            <path d="M2078.12,420.408C2078.12,420.408 2094.6,493.786 2109.15,558.604C2122.79,619.385 2163.74,668.964 2218.45,690.943C2234.71,697.476 2246.7,702.293 2246.7,702.293C2246.7,702.293 2237.12,705.766 2223.47,710.713C2165.93,731.562 2122.5,782.663 2108.57,845.91C2094.17,911.328 2078.12,984.177 2078.12,984.177C2078.12,984.177 2062.71,912.284 2048.76,847.203C2035.04,783.242 1991.2,731.527 1933.02,710.698C1919.23,705.759 1909.54,702.293 1909.54,702.293C1909.54,702.293 1921.62,697.501 1938.01,690.994C1993.38,669.014 2034.76,618.805 2048.21,557.289C2062.3,492.798 2078.12,420.408 2078.12,420.408Z" style="fill:rgb(255,224,0);"/>
        </g>
    </g>
</svg>
